<svg id="visual" viewBox="0 0 900 600" width="900" height="600" xmlns="http://www.w3.org/2000/svg" xmlns:xlink="http://www.w3.org/1999/xlink" version="1.1"><path d="M0 446L21.5 433.8C43 421.7 86 397.3 128.8 396.8C171.7 396.3 214.3 419.7 257.2 417.5C300 415.3 343 387.7 385.8 378.5C428.7 369.3 471.3 378.7 514.2 385.2C557 391.7 600 395.3 642.8 392.5C685.7 389.7 728.3 380.3 771.2 381C814 381.7 857 392.3 878.5 397.7L900 403L900 601L878.5 601C857 601 814 601 771.2 601C728.3 601 685.7 601 642.8 601C600 601 557 601 514.2 601C471.3 601 428.7 601 385.8 601C343 601 300 601 257.2 601C214.3 601 171.7 601 128.8 601C86 601 43 601 21.5 601L0 601Z" fill="#22c55e"></path><path d="M0 415L21.5 419.7C43 424.3 86 433.7 128.8 436C171.7 438.3 214.3 433.7 257.2 433.2C300 432.7 343 436.3 385.8 432.2C428.7 428 471.3 416 514.2 408.7C557 401.3 600 398.7 642.8 408.3C685.7 418 728.3 440 771.2 448.3C814 456.7 857 451.3 878.5 448.7L900 446L900 601L878.5 601C857 601 814 601 771.2 601C728.3 601 685.7 601 642.8 601C600 601 557 601 514.2 601C471.3 601 428.7 601 385.8 601C343 601 300 601 257.2 601C214.3 601 171.7 601 128.8 601C86 601 43 601 21.5 601L0 601Z" fill="#00c5d2"></path><path d="M0 448L21.5 447.5C43 447 86 446 128.8 455.3C171.7 464.7 214.3 484.3 257.2 495.3C300 506.3 343 508.7 385.8 507.3C428.7 506 471.3 501 514.2 494.8C557 488.7 600 481.3 642.8 480.8C685.7 480.3 728.3 486.7 771.2 481.5C814 476.3 857 459.7 878.5 451.3L900 443L900 601L878.5 601C857 601 814 601 771.2 601C728.3 601 685.7 601 642.8 601C600 601 557 601 514.2 601C471.3 601 428.7 601 385.8 601C343 601 300 601 257.2 601C214.3 601 171.7 601 128.8 601C86 601 43 601 21.5 601L0 601Z" fill="#00b2ff"></path><path d="M0 493L21.5 491.3C43 489.7 86 486.3 128.8 493C171.7 499.7 214.3 516.3 257.2 524C300 531.7 343 530.3 385.8 529.8C428.7 529.3 471.3 529.7 514.2 528.3C557 527 600 524 642.8 524.2C685.7 524.3 728.3 527.7 771.2 531C814 534.3 857 537.7 878.5 539.3L900 541L900 601L878.5 601C857 601 814 601 771.2 601C728.3 601 685.7 601 642.8 601C600 601 557 601 514.2 601C471.3 601 428.7 601 385.8 601C343 601 300 601 257.2 601C214.3 601 171.7 601 128.8 601C86 601 43 601 21.5 601L0 601Z" fill="#4490ff"></path><path d="M0 564L21.5 564.3C43 564.7 86 565.3 128.8 563.3C171.7 561.3 214.3 556.7 257.2 556.3C300 556 343 560 385.8 560.7C428.7 561.3 471.3 558.7 514.2 556.2C557 553.7 600 551.3 642.8 548.8C685.7 546.3 728.3 543.7 771.2 542.2C814 540.7 857 540.3 878.5 540.2L900 540L900 601L878.5 601C857 601 814 601 771.2 601C728.3 601 685.7 601 642.8 601C600 601 557 601 514.2 601C471.3 601 428.7 601 385.8 601C343 601 300 601 257.2 601C214.3 601 171.7 601 128.8 601C86 601 43 601 21.5 601L0 601Z" fill="#a855f7"></path></svg>